<svg id="flat" height="512" viewBox="0 0 512 512" width="512" xmlns="http://www.w3.org/2000/svg"><path d="m104 56h336v288h-336z" fill="#e5e7e9"/><path d="m224 155.31348-19.31348-19.31348h-36.68652v-16h40a8.00035 8.00035 0 0 1 5.65674 2.34277l21.65674 21.65723z" fill="#919497"/><path d="m400 280h-40a8.00035 8.00035 0 0 1 -5.65674-2.34277l-21.65674-21.65723 11.31348-11.31348 19.31348 19.31348h36.68652z" fill="#919497"/><path d="m360 200a80.00349 80.00349 0 1 1 -80-80v40a40.01642 40.01642 0 0 0 -39.2 32 40.57337 40.57337 0 0 0 -.8 8 40 40 0 0 0 80 0z" fill="#f07f2f"/><path d="m152 344h320v32h-320z" fill="#009ff5"/><path d="m72 24h400v32h-400z" fill="#009ff5"/><path d="m232 248v16h-56l-16-8h-8v-64h8l24 32z" fill="#de6a1e"/><path d="m160 312 24 88v88h-24l-16-88-16-32h-8v-56z" fill="#42566b"/><path d="m160 280v32l-24 32-16 48-48 96h-24l24-104v-104z" fill="#4d6378"/><path d="m80 280h80v-82.66667a40 40 0 0 0 -8-24l-16-21.33333h-32l-30.502 15.251a40 40 0 0 0 -21.33468 27.93245l-12.16332 60.81655 16 64h24z" fill="#f07f2f"/><path d="m264 376h16v96h-16z" fill="#34475c"/><path d="m272 480a7.99131 7.99131 0 0 1 -3.57764-.84473l-32-16 7.15528-14.31054 28.42236 14.21093 28.42236-14.21093 7.15528 14.31054-32 16a7.99131 7.99131 0 0 1 -3.57764.84473z" fill="#42566b"/><path d="m80 288h-32l8 32h24z" fill="#f5c99d"/><path d="m352 168a40 40 0 0 0 -40-40v-40a80 80 0 0 1 80 80z" fill="#f07f2f"/><path d="m280 280v-40a40 40 0 0 0 40-40h40v.00008a79.99991 79.99991 0 0 1 -79.99992 79.99992z" fill="#de6a1e"/><path d="m280 120v40a40.01642 40.01642 0 0 0 -39.2 32l-39.19-8a80.01363 80.01363 0 0 1 78.39-64z" fill="#fa9e54"/><g fill="#919497"><path d="m216 88h16v16h-16z"/><path d="m168 88h32v16h-32z"/><path d="m336 296h16v16h-16z"/><path d="m368 296h32v16h-32z"/><path d="m232 296h16v16h-16z"/><path d="m184 296h32v16h-32z"/></g><path d="m88 280h-16v-24a7.99723 7.99723 0 0 1 .57227-2.9707l16-40 14.85546 5.9414-15.42773 38.5703z" fill="#de6a1e"/><path d="m232 248v16h-40l8-32z" fill="#f5c99d"/><path d="m136 232h-16v-46.70215l-10.11914-30.35742 15.17871-5.05957 10.52979 31.58887a8.00643 8.00643 0 0 1 .41064 2.53027z" fill="#de6a1e"/><path d="m144 112v24a24 24 0 0 1 -24 24 24 24 0 0 1 -24-24v-24z" fill="#f5c99d"/><path d="m96 112h48v-13.57781a18.42218 18.42218 0 0 0 -18.42219-18.42219 18.42223 18.42223 0 0 0 -10.21881 3.094l-19.359 12.906z" fill="#b1792c"/><path d="m328.00732 496.001a7.99352 7.99352 0 0 1 -6.75683-3.70606l-49.25049-77.39357-49.25049 77.39355a8.00014 8.00014 0 0 1 -13.499-8.58984l56-88a8.0003 8.0003 0 0 1 13.499 0l56 88a8.00186 8.00186 0 0 1 -6.74219 12.2959z" fill="#4d6378"/></svg>