<svg xmlns="http://www.w3.org/2000/svg" width="129.091" height="129.474" viewBox="0 0 129.091 129.474">
    <path fill="#dae1e7" d="M126.591 129.474H2.5a2.5 2.5 0 0 1-2.5-2.5V20.436a2.5 2.5 0 0 1 2.5-2.5h104.493a2.5 2.5 0 1 1 0 5H5v101.538h119.091V20.436a2.5 2.5 0 1 1 5 0v106.538a2.5 2.5 0 0 1-2.5 2.5z"/>
    <path fill="#dae1e7" d="M126.588 22.936c-.456 0-.917-.124-1.331-.385L97.419 5H29.602L3.907 22.502a2.5 2.5 0 0 1-2.815-4.133L27.424.434A2.494 2.494 0 0 1 28.831 0h69.311c.472 0 .934.134 1.333.385l28.449 17.936a2.5 2.5 0 0 1-1.336 4.615z"/>
    <path fill="#dae1e7" d="M73.854 40.111H55.239a2.5 2.5 0 0 1-2.5-2.5V20.436a2.5 2.5 0 0 1 2.5-2.5h18.614a2.5 2.5 0 0 1 2.5 2.5v17.176a2.499 2.499 0 0 1-2.499 2.499zm-16.115-5h13.614V22.936H57.739v12.175z"/>
    <path fill="#dae1e7" d="M73.874 22.936H55.239a2.498 2.498 0 0 1-2.397-3.208l5.296-17.936A2.498 2.498 0 0 1 60.535 0h8.886a2.5 2.5 0 0 1 2.427 1.9l4.358 17.633a2.501 2.501 0 0 1-2.332 3.403zm-15.29-5h12.077L67.463 5h-5.06l-3.819 12.936zm53.971 98.22H68.592a2.5 2.5 0 1 1 0-5h43.963a2.5 2.5 0 1 1 0 5z"/>
</svg>
