<svg height="464pt" viewBox="0 0 464 464" width="464pt" xmlns="http://www.w3.org/2000/svg"><path d="m24 192h176v272h-176zm0 0" fill="#e2c8ac"/><path d="m184 0h256c8.800781 0 16 7.199219 16 16v176c0 8.800781-7.199219 16-16 16h-256c-8.800781 0-16-7.199219-16-16v-176c0-8.800781 7.199219-16 16-16zm0 0" fill="#b4b4b5"/><path d="m280 320h168c8.800781 0 16 7.199219 16 16v96c0 8.800781-7.199219 16-16 16h-168c-8.800781 0-16-7.199219-16-16v-96c0-8.800781 7.199219-16 16-16zm0 0" fill="#676b7f"/><path d="m344 208h-64l-8 56h80zm0 0" fill="#8c8c8c"/><path d="m168 32h288v-16c0-8.800781-7.199219-16-16-16h-256c-8.800781 0-16 7.199219-16 16zm0 0" fill="#a0a0a0"/><path d="m168 176h288v16c0 8.800781-7.199219 16-16 16h-256c-8.800781 0-16-7.199219-16-16zm0 0" fill="#a0a0a0"/><path d="m240 256h144v16h-144zm0 0" fill="#a0a0a0"/><path d="m0 272v80c0 8.800781 7.199219 16 16 16h192c8.800781 0 16-7.199219 16-16v-80zm0 0" fill="#3a6289"/><path d="m24 328h16v16h-16zm0 0" fill="#2b4a66"/><path d="m56 328h16v16h-16zm0 0" fill="#2b4a66"/><path d="m48 424h128v16h-128zm0 0" fill="#ceb195"/><g fill="#4a4a56"><path d="m360 344h16v16h-16zm0 0"/><path d="m392 344h16v16h-16zm0 0"/><path d="m424 344h16v16h-16zm0 0"/><path d="m360 376h16v16h-16zm0 0"/><path d="m392 376h16v16h-16zm0 0"/><path d="m424 376h16v16h-16zm0 0"/><path d="m360 408h16v16h-16zm0 0"/><path d="m392 408h16v16h-16zm0 0"/><path d="m424 408h16v16h-16zm0 0"/></g><path d="m312 296h8c8.800781 0 16 7.199219 16 16v136c0 8.800781-7.199219 16-16 16h-8c-8.800781 0-16-7.199219-16-16v-136c0-8.800781 7.199219-16 16-16zm0 0" fill="#878b9b"/><path d="m48 392h128v16h-128zm0 0" fill="#ceb195"/><path d="m40 0h72c8.800781 0 16 7.199219 16 16v128c0 8.800781-7.199219 16-16 16h-72c-8.800781 0-16-7.199219-16-16v-128c0-8.800781 7.199219-16 16-16zm0 0" fill="#878b9b"/><path d="m24 32h104v-16c0-8.800781-7.199219-16-16-16h-72c-8.800781 0-16 7.199219-16 16zm0 0" fill="#676b7f"/><path d="m24 128h104v16c0 8.800781-7.199219 16-16 16h-72c-8.800781 0-16-7.199219-16-16zm0 0" fill="#676b7f"/></svg>